<svg viewBox="1.6 7 27 18" fill="none" xmlns="http://www.w3.org/2000/svg">
<path d="M2.08325 7.55566H27.9166V24.4446H2.08325V7.55566Z" fill="#1E50A0"/>
<path d="M16.6667 12.825V14.2223H20.9088L27.9167 9.64055V7.55566H24.7276L16.6667 12.825Z" fill="white"/>
<path d="M27.9167 7.55566H26.3222L16.6667 13.8681V14.2223H18.1176L27.9167 7.81611V7.55566Z" fill="#D22F27"/>
<path d="M24.728 24.4445H27.9167V22.3592L20.9092 17.7778H16.6667V19.1747L24.728 24.4445Z" fill="white"/>
<path d="M27.9167 24.4445V23.4014L19.3147 17.7778H17.3201L27.5176 24.4445H27.9167Z" fill="#D22F27"/>
<path d="M13.3333 19.1752V17.7778H9.09117L2.08325 22.3596V24.4445H5.27242L13.3333 19.1752Z" fill="white"/>
<path d="M2.08325 24.4445H3.67784L13.3333 18.1321V17.7778H11.8824L2.08325 24.1841V24.4445Z" fill="#D22F27"/>
<path d="M5.272 7.55566H2.08325V9.641L9.09075 14.2223H13.3333V12.8254L5.272 7.55566Z" fill="white"/>
<path d="M2.08325 7.55566V8.59878L10.6858 14.2223H12.6799L2.48242 7.55566H2.08325Z" fill="#D22F27"/>
<path d="M2.08325 13.7778H27.9166V18.2223H2.08325V13.7778Z" fill="white"/>
<path d="M12.9167 7.55566H17.0834V24.4446H12.9167V7.55566Z" fill="white"/>
<path d="M2.08325 14.6665H27.9166V17.3332H2.08325V14.6665Z" fill="#D22F27"/>
<path d="M13.75 7.55566H16.25V24.4446H13.75V7.55566Z" fill="#D22F27"/>
<path d="M2.08325 7.55566H27.9166V24.4446H2.08325V7.55566Z" stroke="#AAAAAA" stroke-linecap="round" stroke-linejoin="round"/>
</svg>
