<?xml version="1.0" standalone="no"?>
<!DOCTYPE svg PUBLIC "-//W3C//DTD SVG 20010904//EN"
 "http://www.w3.org/TR/2001/REC-SVG-20010904/DTD/svg10.dtd">
<svg version="1.0" xmlns="http://www.w3.org/2000/svg"
 width="809.000000pt" height="809.000000pt" viewBox="0 0 809.000000 809.000000"
 preserveAspectRatio="xMidYMid meet">
<metadata>
Created by potrace 1.14, written by Peter Selinger 2001-2017
</metadata>
<g transform="translate(0.000000,809.000000) scale(0.100000,-0.100000)"
fill="#000000" stroke="none">
<path d="M3849 8086 c-2 -2 -44 -7 -94 -10 -49 -4 -103 -9 -120 -11 -16 -2
-46 -6 -65 -9 -57 -7 -148 -24 -281 -51 -74 -15 -277 -75 -379 -112 -136 -49
-144 -52 -273 -112 -49 -23 -91 -41 -93 -41 -2 0 -22 -11 -44 -25 -22 -14 -40
-23 -40 -20 0 3 -18 -6 -40 -20 -22 -14 -44 -25 -49 -25 -5 0 -11 -3 -13 -7
-1 -5 -19 -17 -38 -27 -86 -47 -386 -258 -420 -296 -3 -3 -34 -30 -70 -60
-125 -106 -305 -294 -422 -441 -165 -206 -304 -431 -417 -674 -29 -60 -56
-118 -61 -127 -6 -10 -10 -23 -10 -30 0 -7 -6 -24 -13 -38 -13 -25 -106 -298
-112 -329 -2 -9 -12 -52 -23 -96 -24 -93 -51 -228 -57 -276 -2 -19 -6 -50 -9
-69 -28 -163 -38 -473 -23 -706 4 -60 9 -120 12 -133 2 -13 7 -49 10 -80 4
-31 8 -63 10 -71 3 -8 7 -31 10 -50 5 -34 20 -109 31 -160 3 -14 7 -34 9 -45
58 -271 232 -694 395 -956 28 -44 50 -84 50 -89 0 -5 3 -10 8 -12 4 -1 27 -32
51 -68 169 -248 383 -480 655 -708 85 -71 374 -272 392 -272 4 0 15 -6 23 -14
22 -20 231 -128 337 -174 86 -38 272 -110 304 -118 8 -2 42 -13 75 -24 33 -12
69 -23 80 -25 11 -1 65 -14 120 -28 241 -62 489 -90 785 -91 208 0 414 15 540
40 14 2 39 6 55 9 17 2 48 9 70 14 22 6 56 13 75 16 19 3 43 8 52 11 9 3 26 7
38 9 67 13 309 92 428 141 437 177 797 416 1128 748 124 125 314 345 314 365
0 6 4 11 8 11 10 0 154 216 221 333 48 83 116 220 174 347 32 72 135 365 138
392 0 4 9 38 20 75 11 38 21 79 24 93 3 14 7 35 10 48 12 52 14 61 19 98 4 22
11 64 16 94 28 168 35 273 35 530 -1 209 -4 285 -20 410 -14 109 -18 135 -31
195 -4 17 -8 41 -9 55 -1 14 -5 32 -8 40 -6 16 -16 59 -23 97 -2 12 -20 77
-40 144 -138 477 -404 950 -738 1314 -164 178 -316 315 -519 465 -37 27 -72
50 -77 50 -4 0 -10 4 -12 9 -1 5 -17 17 -34 27 -17 11 -78 47 -135 82 -279
169 -675 328 -959 386 -203 42 -320 61 -443 72 -64 6 -503 14 -508 10z m381
-1692 c30 -4 62 -8 70 -9 104 -14 266 -57 348 -91 17 -8 49 -21 70 -29 20 -9
44 -20 52 -25 8 -5 34 -18 58 -29 42 -20 203 -122 228 -144 7 -7 27 -23 45
-37 61 -46 178 -162 237 -234 31 -39 60 -72 65 -74 4 -2 7 -8 7 -12 0 -5 21
-39 46 -76 92 -135 211 -415 230 -542 3 -21 7 -45 10 -54 24 -81 36 -325 24
-463 -34 -390 -201 -751 -474 -1028 -98 -100 -130 -128 -221 -192 -38 -27 -72
-52 -75 -55 -10 -10 -105 -61 -196 -104 -154 -74 -330 -123 -534 -151 -49 -6
-285 -6 -340 1 -25 3 -52 5 -60 6 -14 1 -152 26 -175 32 -5 2 -23 6 -40 10
-16 4 -70 21 -119 38 -299 103 -579 305 -776 558 -122 158 -254 424 -295 596
-37 153 -46 211 -50 318 -3 49 -6 91 -9 93 -3 3 -3 10 -1 16 2 7 6 59 9 117 3
58 13 144 21 190 17 90 62 258 75 275 4 6 10 23 14 39 11 47 101 220 162 312
245 371 640 640 1065 725 162 32 390 42 529 23z"/>
<path d="M4019 5735 c-3 -2 -31 -6 -64 -9 -93 -9 -130 -15 -161 -26 -16 -6
-30 -11 -31 -11 -2 1 -5 0 -8 0 -3 -1 -8 -2 -12 -3 -23 -4 -117 -44 -173 -73
-94 -50 -188 -122 -261 -202 -85 -92 -85 -92 -130 -167 -162 -266 -190 -604
-73 -896 107 -269 338 -490 607 -582 113 -38 192 -50 332 -50 209 0 361 43
532 150 78 49 103 68 176 139 126 122 226 297 271 476 22 91 26 120 26 234 0
109 -2 126 -26 229 l-17 68 -29 -48 c-46 -75 -127 -148 -209 -188 -87 -42
-109 -47 -209 -51 -131 -6 -249 38 -354 130 -33 29 -96 110 -96 124 0 6 -3 11
-8 11 -15 0 -56 156 -57 220 -2 92 12 155 51 235 40 82 96 146 177 203 l58 40
-33 8 c-18 4 -40 8 -48 9 -9 0 -20 4 -27 8 -6 4 -51 10 -99 13 -49 3 -92 8
-95 10 -3 2 -8 2 -10 -1z"/>
<path d="M2162 990 c-78 -44 -147 -80 -152 -80 -6 0 -10 -3 -10 -8 0 -4 -15
-14 -32 -21 -18 -8 -69 -35 -113 -60 -44 -26 -93 -53 -110 -61 -16 -8 -32 -17
-35 -20 -5 -5 -37 -22 -164 -89 -129 -68 -201 -188 -195 -323 8 -152 109 -275
256 -312 37 -9 611 -11 2453 -10 2657 1 2436 -4 2534 64 171 117 190 375 39
514 -40 36 -24 27 -308 184 -104 57 -210 116 -235 130 -25 13 -74 40 -110 60
-36 19 -96 52 -134 74 -76 43 -77 42 -168 -3 -32 -16 -61 -30 -65 -30 -5 0
-27 -9 -50 -20 -23 -10 -44 -19 -47 -19 -2 0 -17 -5 -33 -12 -15 -6 -32 -13
-38 -14 -5 -2 -69 -24 -141 -48 -159 -55 -372 -112 -484 -131 -14 -2 -36 -6
-50 -9 -51 -10 -156 -27 -200 -32 -25 -2 -56 -6 -70 -9 -85 -13 -237 -20 -460
-19 -287 0 -400 5 -400 17 0 5 -5 5 -10 2 -9 -5 -71 1 -190 20 -14 3 -42 7
-64 10 -21 4 -48 9 -60 11 -11 3 -34 7 -51 10 -171 30 -582 152 -720 214 -72
33 -230 100 -235 100 -3 0 -69 -36 -148 -80z"/>
</g>
</svg>
